<svg width="1017" height="1375" viewBox="0 0 1017 1375" fill="none" xmlns="http://www.w3.org/2000/svg">
<path d="M401.072 573.308C559.138 573.308 687.276 445.169 687.276 287.103C687.276 129.036 559.138 0.897949 401.072 0.897949C243.005 0.897949 114.867 129.036 114.867 287.103C114.867 445.169 243.005 573.308 401.072 573.308Z" fill="#4C341F"/>
<path d="M324.251 1155.5C274.766 1056.48 304.217 921.925 391.509 849.172C431.925 815.842 482.741 797.725 535.127 797.97C588.871 799.27 641.331 814.661 687.259 842.603C722.512 821.728 761.328 807.565 801.741 800.832V745.022C801.692 699.493 783.584 655.843 751.39 623.65C719.196 591.456 675.547 573.348 630.018 573.299H172.09C126.561 573.348 82.9117 591.456 50.718 623.65C18.5244 655.843 0.41643 699.493 0.367188 745.022V1202.95C0.367188 1218.13 6.39793 1232.69 17.1327 1243.42C27.8675 1254.16 42.4269 1260.19 57.6082 1260.19H408.209C374.316 1230.47 345.899 1195.04 324.251 1155.5Z" fill="#4C341F"/>
<path d="M946.395 893.127C913.968 866.038 825.459 815.608 687.265 910.156C549.042 815.594 460.548 866.066 428.135 893.127C361.578 948.665 337.981 1054.83 375.459 1129.9C435.562 1250.11 664.655 1366.7 674.372 1371.6C678.366 1373.62 682.777 1374.67 687.251 1374.67C691.724 1374.67 696.135 1373.62 700.13 1371.6C709.847 1366.7 938.939 1250.1 999.042 1129.9C1036.58 1054.88 1012.95 948.665 946.395 893.127ZM858.988 1088.48C847.667 1088.48 836.6 1085.12 827.187 1078.83C817.773 1072.54 810.437 1063.6 806.104 1053.14C801.772 1042.68 800.638 1031.17 802.847 1020.07C805.056 1008.96 810.507 998.765 818.513 990.76C826.518 982.754 836.717 977.303 847.821 975.094C858.924 972.885 870.434 974.019 880.893 978.351C891.353 982.684 900.292 990.021 906.582 999.434C912.872 1008.85 916.229 1019.91 916.229 1031.24C916.229 1046.42 910.198 1060.98 899.464 1071.71C888.729 1082.45 874.169 1088.48 858.988 1088.48Z" fill="#4C341F"/>
</svg>
