<svg width="75" height="180" viewBox="0 0 75 180" fill="none" xmlns="http://www.w3.org/2000/svg">
<path id="Vector" d="M73.8355 93.8187C73.921 93.8355 74.0011 93.873 74.0688 93.9278C74.136 93.9838 74.1885 94.0554 74.2216 94.1364C74.2546 94.2174 74.2673 94.3052 74.2584 94.3923C74.2182 94.7677 74.1905 95.1313 74.1655 95.4839L74.1648 95.4935C74.1085 96.2681 74.0555 96.9986 73.8678 97.7221C72.1098 104.504 69.2003 109.906 64.9733 114.235C63.166 116.087 61.2614 117.148 59.1514 117.481C58.6174 117.564 57.9683 117.574 56.8655 117.506L56.5488 117.487C56.5004 117.484 56.4581 117.481 56.4195 117.481C56.3326 117.481 56.3261 117.481 56.2706 117.563L54.7887 119.595C54.7706 119.621 54.7437 119.713 54.7252 119.777L54.7241 119.781L54.7018 119.857C53.1698 125.043 51.2691 130.04 49.0277 134.781C50.0287 133.402 51.1484 132.112 52.374 130.927C58.04 125.436 67.727 125.277 68.8129 125.277L69.0335 125.294C69.1613 125.338 69.2668 125.431 69.3279 125.552C69.389 125.672 69.4008 125.812 69.3611 125.941C69.2861 126.192 69.2155 126.447 69.1465 126.702C68.9792 127.31 68.8184 127.891 68.5929 128.453C67.5195 131.131 65.7795 133.709 63.1165 136.567C61.2858 138.525 59.2226 140.512 56.539 141.768C53.6012 143.146 50.9453 143.482 48.3106 142.808C47.8602 142.69 47.3436 142.541 46.8992 142.252C46.5853 142.051 46.4978 142.057 46.1871 142.288C45.8209 142.56 45.4311 142.789 45.0545 143.009L45.0479 143.013C44.8366 143.136 44.6247 143.261 44.4177 143.393C44.3986 143.411 44.3443 143.498 44.314 143.546L44.3031 143.564C41.9357 147.421 39.3282 151.005 36.512 154.275C38.0347 153.168 39.5987 152.367 41.2605 151.834C46.3365 150.2 51.6575 150.408 56.928 152.442C57.7151 152.747 58.5772 153.208 58.6131 153.228C58.678 153.268 58.7337 153.32 58.7768 153.383C58.8199 153.445 58.8492 153.516 58.863 153.591C58.8749 153.663 58.8718 153.736 58.8541 153.807C58.8363 153.878 58.8042 153.944 58.7598 154.002C58.5963 154.214 58.4371 154.429 58.2795 154.642L58.2448 154.689L58.2421 154.693C57.8869 155.175 57.4847 155.722 57.0345 156.205C54.9984 158.384 52.4875 159.846 50.0788 161.101C46.7645 162.818 43.3758 163.743 40.005 163.851C39.8469 163.857 39.6883 163.86 39.5302 163.86C36.43 163.86 34.0098 162.84 32.1313 160.74C32.1221 160.736 32.0406 160.706 31.9765 160.706C31.2833 160.755 30.6059 160.86 30.0958 160.944C30.0091 160.962 29.9284 161.002 29.8611 161.06C26.7435 163.816 23.4422 166.236 19.9943 168.294C20.5247 168.137 21.0624 168.004 21.6055 167.898C25.2914 167.19 29.0517 167.634 33.1798 169.273C35.966 170.382 38.5568 172.011 41.1013 174.254C41.2021 174.342 41.265 174.467 41.2773 174.6C41.2895 174.734 41.25 174.867 41.167 174.973C40.2669 176.117 39.0956 176.758 38.0678 177.234C35.563 178.396 32.7349 179.14 29.4233 179.51L29.4222 179.51C29.3812 179.514 28.3247 179.604 26.851 179.604C25.7727 179.604 24.7694 179.555 23.8698 179.46C23.0104 179.37 22.1531 179.223 21.322 179.024C17.5014 178.095 14.9134 176.185 13.4075 173.186C13.4054 173.192 13.2875 173.127 13.1452 173.092C12.4558 172.921 11.8349 172.8 11.2471 172.722C11.0944 172.697 10.9315 172.738 10.718 172.824C8.01485 173.859 5.24107 174.7 2.41784 175.34C2.21738 175.392 1.94956 175.285 1.83711 175.077C1.55861 174.561 1.22709 174.075 0.847883 173.628C0.788959 173.559 0.749013 173.476 0.731968 173.386C0.714923 173.297 0.721355 173.205 0.750635 173.119C0.779415 173.033 0.829775 172.957 0.896856 172.896C0.963937 172.836 1.04548 172.794 1.13362 172.774C4.65217 171.998 8.149 170.868 11.8267 169.319C11.8713 169.298 11.981 169.175 12.0152 169.061C12.3814 167.816 12.5041 166.558 12.3911 165.219C11.6708 156.67 16.768 147.66 24.5113 143.798C24.6738 143.715 24.846 143.643 25.0437 143.562L25.2289 143.485C25.3158 143.45 25.4105 143.438 25.5035 143.45C25.5965 143.463 25.6845 143.5 25.7586 143.558C25.8324 143.616 25.8892 143.692 25.9232 143.78C25.9573 143.867 25.9672 143.962 25.952 144.054L25.7396 145.366L25.7228 145.469C25.5407 146.593 25.3622 147.695 25.1909 148.798L25.1475 149.086C24.6493 152.324 24.1354 155.662 23.1342 158.87C22.2308 161.764 20.8369 164.048 18.898 165.798C23.016 163.369 26.8352 160.467 30.2778 157.152C30.3495 157.083 30.4364 156.897 30.45 156.733L30.5418 154.446C30.5424 154.374 30.5434 154.158 30.4978 154.052C28.7899 150.078 28.3526 145.606 29.1593 140.38C29.9372 135.34 32.0917 130.705 35.5635 126.604C36.0687 126.007 36.5365 125.774 36.8255 125.925C36.903 125.964 36.9695 126.022 37.0191 126.093C37.0687 126.164 37.0998 126.246 37.1096 126.332L37.2035 127.132C37.275 127.717 37.3423 128.302 37.4056 128.887C37.5142 129.914 37.6283 130.94 37.7479 131.965L37.7647 132.113L37.7729 132.185C38.0632 134.722 38.3632 137.345 38.5231 139.972C38.7099 143.066 38.6545 146.678 36.8244 150.019L36.7956 150.071C39.3705 146.849 41.6905 143.431 43.7343 139.849C43.9174 139.527 43.9337 139.245 43.8989 138.835C43.7523 137.101 42.9445 135.691 42.0943 134.426C40.4516 131.978 39.4574 129.084 38.8707 125.043C38.0499 119.391 38.8789 113.721 41.3332 108.19C41.399 108.042 41.4756 107.898 41.5575 107.744L41.5636 107.733L41.7553 107.373C41.7979 107.287 41.8633 107.216 41.9442 107.165C42.0251 107.115 42.1184 107.088 42.2138 107.087C42.4566 107.099 42.6386 107.229 42.7142 107.421C43.2939 108.881 43.8748 110.34 44.4569 111.799L44.8224 112.715C46.0426 115.775 47.4104 119.349 48.2063 123.036C48.7669 125.638 48.8006 128.149 48.3095 130.54C50.2168 126.004 51.7857 121.211 52.9868 116.242C53.0004 116.187 53.0047 116.043 52.8857 115.713C52.3127 114.162 51.3146 112.804 50.0055 111.793C47.1676 109.62 45.558 106.598 44.358 103.93C41.9009 98.4726 41.2344 92.6749 42.3208 86.2039C42.3317 86.1367 42.3523 86.0694 42.3784 85.9934L42.3969 85.937C42.4205 85.8655 42.4592 85.7998 42.5103 85.7445C42.5614 85.6891 42.6237 85.6452 42.6932 85.6158C42.7626 85.5865 42.8375 85.5722 42.9129 85.5741C42.9883 85.5759 43.0624 85.5939 43.1303 85.6266C43.2253 85.6597 43.3899 85.7194 43.504 85.886C44.1119 86.6966 44.7361 87.5252 45.3608 88.3526L45.4657 88.4921L45.5467 88.5996C47.0969 90.6556 48.6971 92.778 50.2358 94.8931C52.0497 97.3781 53.3307 99.7943 54.1526 102.279C54.5497 103.48 54.8083 104.635 54.9305 105.757C55.4563 101.677 55.751 97.5705 55.8133 93.4574C55.8285 92.4666 55.7024 91.6793 55.0255 90.8176C54.3079 89.8974 53.6381 89.3846 52.7146 89.0461C48.9196 87.6619 46.4859 84.7351 44.7893 82.3407C42.0487 78.4671 40.4412 73.9592 39.8752 68.5598C39.8152 68.0085 39.7816 67.4501 39.746 66.8587L39.7453 66.8485L39.7367 66.7134C39.7198 66.4242 39.7019 66.123 39.6796 65.8045C39.6724 65.7011 39.6959 65.5978 39.7472 65.5076C39.7985 65.4174 39.8754 65.3444 39.9681 65.2978C40.0609 65.2528 40.1647 65.2353 40.2672 65.2476C40.3697 65.2598 40.4665 65.3011 40.5461 65.3667L40.9975 65.753C41.1502 65.8847 41.3048 66.014 41.4614 66.1409C42.1191 66.6687 42.7786 67.1905 43.4395 67.7135L43.6382 67.8707L43.7143 67.9304L43.7452 67.9549C45.3327 69.211 46.973 70.5089 48.5398 71.849C51.5993 74.4551 53.5697 77.0498 54.7403 80.0151C54.9296 80.4912 55.0992 80.9749 55.2488 81.4649C54.776 76.8011 53.9954 72.1736 52.9123 67.6125C52.782 67.0612 52.7092 66.8995 52.4446 66.8127C52.2735 66.7546 52.1165 66.6456 51.9981 66.5056C51.2234 65.626 50.1978 65.486 49.2058 65.466C45.8915 65.3884 43.2634 63.7372 41.1295 62.1322C35.8987 58.1979 32.297 48.2136 32.297 47.875C32.2969 47.7876 32.3187 47.7015 32.3603 47.6245C32.402 47.5476 32.4622 47.4822 32.5355 47.4344C32.6088 47.3865 32.6929 47.3577 32.7801 47.3505C32.8674 47.3433 32.9551 47.358 33.0353 47.3932C34.1056 47.8471 35.1806 48.2911 36.2516 48.7333L36.2952 48.7513L36.3099 48.7574C38.8307 49.801 41.3923 50.8615 43.8528 52.0215C46.3343 53.1941 48.2943 54.7616 49.6958 56.6916C48.3649 52.9124 46.8218 49.2112 45.074 45.6053C44.8773 45.2266 43.9413 44.8175 42.599 44.8175C42.1866 44.8148 41.7754 44.86 41.3734 44.9521C38.2178 45.7057 35.0893 45.2489 31.6267 43.5212C28.0847 41.7524 25.1458 38.8603 22.6431 34.6791C22.5948 34.5966 22.5008 34.3498 22.4492 34.2098C22.418 34.1276 22.408 34.0389 22.4202 33.9518C22.4323 33.8648 22.4662 33.7822 22.5187 33.7117C22.5671 33.6455 22.6305 33.5916 22.7036 33.5544C22.7768 33.5173 22.8577 33.4979 22.9397 33.4979L24.225 33.5771L24.3021 33.582C25.0415 33.6285 25.7607 33.6739 26.48 33.7106L27.2748 33.7507L27.2881 33.7514C29.6569 33.8706 32.1065 33.9938 34.5026 34.5641C37.2416 35.2217 39.2521 36.2315 40.7938 37.729C39.0064 34.7501 37.0576 31.8708 34.9562 29.1039C34.9018 29.0334 34.6357 28.9238 34.4395 28.8912C34.3086 28.8614 33.9137 28.7784 33.3873 28.7784C32.6898 28.7784 32.0792 28.9195 31.5729 29.1978C28.2624 30.8164 24.5781 30.9298 20.5669 29.5538C17.277 28.4311 14.4902 26.3459 12.0473 23.1799C11.969 23.079 11.8974 22.9683 11.8322 22.8505C11.7583 22.7154 11.7528 22.5668 11.818 22.4311C12.0065 22.0345 12.8252 21.8484 13.168 21.787L13.2393 21.7746C14.068 21.6301 14.9992 21.4677 15.9233 21.3427C16.3573 21.2813 16.7924 21.2179 17.2298 21.1538L17.2862 21.1452L17.2906 21.1445C18.7685 20.9266 20.2968 20.7012 21.8364 20.6237C24.6526 20.4816 27.1531 21.0545 29.1989 22.3242C27.8491 20.8868 26.4451 19.5011 24.9899 18.1701C24.5385 17.7588 24.0278 17.3437 23.3341 16.825C23.2782 16.7816 23.1413 16.7339 22.9685 16.7235C18.0414 16.5315 13.9372 14.3567 10.4279 10.0762C8.51622 7.74685 7.05057 4.80816 5.94616 1.09247L5.90815 0.964959L5.90778 0.963752C5.79013 0.573848 5.72535 0.359162 5.9956 0.107657C6.20584 -0.0865917 6.59316 -0.0225653 7.49874 0.337175C8.39997 0.683894 9.27513 1.00728 10.1503 1.33175L10.1686 1.33853C11.9896 2.01298 13.8492 2.7017 15.6441 3.47934C18.6536 4.78591 21.0563 6.76639 22.7855 9.36487C24.1023 11.3421 24.6227 13.328 24.3777 15.436C24.3852 15.4672 24.3974 15.497 24.4141 15.5244C27.5486 18.2249 30.5478 21.2721 33.6312 24.901C31.575 21.761 30.2349 18.1462 29.5624 13.9552C28.8844 9.7295 28.8415 5.96931 29.4304 2.45872C29.4678 2.23843 29.5183 2.01922 29.5835 1.74141L29.6792 1.32253C29.7001 1.23251 29.7441 1.14947 29.8069 1.08155C29.8696 1.01364 29.949 0.963178 30.0371 0.935116C30.1267 0.907849 30.2219 0.904782 30.313 0.926228C30.4042 0.947674 30.488 0.992866 30.5559 1.0572C30.7564 1.24625 30.955 1.42573 31.149 1.60103L31.1866 1.63506L31.3322 1.76691C31.8586 2.24006 32.3562 2.6877 32.8066 3.19394C37.1818 8.1245 39.7345 13.3323 40.6086 19.1158C41.0068 21.729 40.8411 23.9542 40.1034 25.9162C39.8589 26.5662 39.4775 27.1468 39.1081 27.7078C38.924 27.9867 38.7507 28.2504 38.5926 28.5196C38.4807 28.7062 38.4666 28.7692 38.4649 28.7806C38.5548 29.6773 38.6638 30.5721 38.792 31.4642C38.7882 31.4393 38.811 31.4745 38.8653 31.5467L38.9202 31.6221C41.3277 34.9677 43.5276 38.4575 45.5075 42.072C44.5642 38.7837 44.1065 35.3756 44.1488 31.9553C44.201 27.1794 45.3027 22.9194 47.5147 18.9319C47.5576 18.8552 47.6189 18.7903 47.693 18.7431C47.7671 18.6958 47.8518 18.6677 47.9395 18.6612C48.1623 18.6612 48.3003 18.7393 48.4002 18.8733C48.4653 18.9622 48.532 19.0499 48.6001 19.1365C48.7395 19.3127 48.8714 19.4946 48.9956 19.6818C50.7579 22.442 51.7042 25.4865 52.3311 27.8299C53.4784 32.1257 54.0048 35.7144 53.9896 39.1246C53.9809 42.0215 53.4518 44.2483 52.3251 46.1333C51.9755 46.7189 51.5343 47.2318 51.107 47.7285L51.1061 47.7296L51.08 47.7601C50.8383 48.0422 50.6052 48.3142 50.3945 48.5923C50.2407 48.7936 50.1668 48.9982 50.1625 49.1121C50.1337 49.7988 50.1489 50.4968 50.1635 51.1715L50.1636 51.1724L50.1733 51.6401C50.1767 51.7244 50.1937 51.8076 50.2239 51.8864C51.6555 55.3597 52.8961 58.9085 53.9402 62.5169C53.7876 61.3145 53.6987 60.1048 53.674 58.893C53.5458 52.2223 55.5943 46.2646 59.7642 41.1848L60.6339 40.1262C60.6832 40.0657 60.7453 40.017 60.8158 39.9834C60.8863 39.9499 60.9633 39.9325 61.0414 39.9325L61.131 39.9407C61.2221 39.9562 61.3074 39.9954 61.3784 40.0544C61.4495 40.1133 61.5037 40.19 61.5357 40.2765C61.615 40.4854 61.6922 40.6851 61.7677 40.8783C61.9116 41.2349 62.0446 41.5959 62.1664 41.9607C63.0617 44.7611 63.5006 47.8186 63.5897 51.8761L63.5913 51.9548L63.5914 51.9568C63.6582 54.9084 63.7497 58.9497 62.5369 62.8176C61.3418 66.6255 59.2351 68.5506 58.825 68.8979L58.7831 68.9353C57.6711 69.9266 56.947 70.8333 56.7971 71.422L56.795 71.4301C56.7348 71.6651 56.6745 71.9005 56.6031 72.1344C56.286 73.1807 56.484 74.1792 56.6936 75.2362L56.6938 75.2375L56.6945 75.2411C56.803 75.7902 56.915 76.3576 56.9535 76.9408C57.1067 79.249 57.2947 81.5962 57.4766 83.8659L57.4929 84.0759L57.6326 85.8127C58.0965 80.619 59.8191 75.8979 62.7808 71.7226C64.5958 69.1681 66.7595 66.9814 69.2128 65.225C69.3181 65.1491 69.4295 65.0813 69.5756 64.9944C69.6512 64.9505 69.7343 64.9011 69.8315 64.8403C69.908 64.7937 69.9949 64.7669 70.0844 64.7624C70.1739 64.758 70.2631 64.776 70.3438 64.8148C70.4239 64.8544 70.4926 64.9137 70.5435 64.987C70.5945 65.0604 70.6259 65.1455 70.635 65.2343C70.6677 65.5541 70.7045 65.8736 70.7452 66.1925C70.83 66.8865 70.9071 67.5246 70.9104 68.18C70.9468 74.9744 69.5077 81.3412 66.6318 87.1014C65.8306 88.7086 64.7718 90.0987 63.4843 91.2343C62.2066 92.3559 60.8284 93.0168 59.2699 93.2544C59.2183 93.2716 59.1713 93.3001 59.1324 93.338C59.0602 93.4872 58.9727 93.657 58.8853 93.8269C58.5745 94.427 58.2535 95.0472 58.0938 95.669C57.9607 96.1937 57.9607 96.7688 57.9607 97.3776V97.3783C57.9607 97.6011 57.9607 97.8255 57.9536 98.0461C57.8042 103.309 57.6087 105.141 56.765 109.844C57.2794 108.446 57.9254 107.044 58.7592 105.695C62.136 100.236 66.4265 96.5306 71.8763 94.3678C72.2142 94.2323 72.5553 94.1326 72.9481 94.0179L72.9725 94.0108L73.0524 93.9875L73.0747 93.981C73.2316 93.9351 73.3978 93.8866 73.5782 93.8312C73.6617 93.8061 73.75 93.8018 73.8355 93.8187Z" fill="#FFCE21"/>
</svg>
