<svg width="74" height="180" viewBox="0 0 74 180" fill="none" xmlns="http://www.w3.org/2000/svg">
<path id="Vector" d="M73.1271 172.776C69.6118 172.001 66.1155 170.87 62.4367 169.321C62.3927 169.301 62.2835 169.177 62.2492 169.067C61.8826 167.818 61.7598 166.56 61.8728 165.221C62.5931 156.671 57.4959 147.663 49.7542 143.8C49.5795 143.714 49.4013 143.635 49.2202 143.564L49.0365 143.488C48.9503 143.452 48.8561 143.44 48.7635 143.452C48.6709 143.464 48.5831 143.5 48.5091 143.557C48.4342 143.615 48.3764 143.692 48.3418 143.78C48.3072 143.868 48.297 143.964 48.3124 144.057L48.5243 145.368C48.7122 146.528 48.8964 147.663 49.0729 148.799L49.1175 149.097C49.6146 152.326 50.1285 155.665 51.1297 158.873C52.0331 161.767 53.427 164.051 55.3658 165.801C51.248 163.372 47.4289 160.47 43.9866 157.155C43.9138 157.085 43.8274 156.899 43.8149 156.746L43.722 154.458C43.7215 154.377 43.7204 154.161 43.7666 154.054C45.474 150.081 45.9113 145.609 45.1046 140.383C44.3267 135.343 42.1722 130.708 38.7003 126.606C38.294 126.126 37.9354 125.883 37.6345 125.883C37.5681 125.881 37.5024 125.896 37.4427 125.925C37.3642 125.964 37.2966 126.022 37.2461 126.093C37.1957 126.165 37.1639 126.248 37.1537 126.335L37.0608 127.133C36.989 127.718 36.9215 128.304 36.8582 128.89C36.7495 129.916 36.6354 130.942 36.5159 131.967L36.4991 132.115C36.2057 134.676 35.9015 137.324 35.7407 139.975C35.5539 143.068 35.6093 146.68 37.4394 150.021L37.4677 150.073C34.893 146.851 32.5733 143.434 30.5294 139.852C30.3464 139.53 30.3306 139.247 30.3648 138.837C30.512 137.102 31.3193 135.693 32.1695 134.428C33.8117 131.98 34.8058 129.086 35.3931 125.045C36.2139 119.393 35.3849 113.724 32.9306 108.192C32.8632 108.04 32.7844 107.893 32.7002 107.735L32.5085 107.374C32.4609 107.285 32.3892 107.211 32.3017 107.161C32.2142 107.111 32.1143 107.086 32.0136 107.09C31.9127 107.096 31.8155 107.13 31.7334 107.188C31.6512 107.247 31.5877 107.328 31.5502 107.422C30.9703 108.882 30.3892 110.342 29.8069 111.801L29.4413 112.717C28.2212 115.778 26.8528 119.352 26.0575 123.039C25.4969 125.64 25.4626 128.152 25.9543 130.542C24.0464 126.007 22.4781 121.214 21.277 116.244C21.2634 116.189 21.259 116.046 21.378 115.715C21.9509 114.164 22.9492 112.806 24.2588 111.795C27.0962 109.621 28.7058 106.6 29.9058 103.931C32.3629 98.4738 33.0294 92.6761 31.9429 86.2055C31.9295 86.1347 31.9106 86.065 31.8864 85.9971L31.8669 85.9385C31.8433 85.8666 31.8045 85.8006 31.7533 85.7448C31.702 85.689 31.6395 85.6448 31.5697 85.6151C31.5024 85.5884 31.4305 85.5751 31.3581 85.5761C31.2857 85.5771 31.2141 85.5924 31.1476 85.6211C31.039 85.6607 30.8744 85.7209 30.7674 85.8778C30.1475 86.7041 29.5262 87.5294 28.9035 88.3537L28.7987 88.4931C27.2233 90.5827 25.5941 92.7423 24.0285 94.8937C22.2146 97.3794 20.9336 99.7956 20.1117 102.281C19.7151 103.481 19.456 104.636 19.3338 105.758C18.808 101.678 18.5133 97.5717 18.451 93.4585C18.4358 92.4677 18.5618 91.6804 19.2393 90.8182C19.9563 89.899 20.6262 89.3857 21.5497 89.0471C25.3442 87.6624 27.7785 84.7361 29.475 82.3416C32.2157 78.4679 33.8231 73.9605 34.3892 68.5616C34.4495 68.006 34.4837 67.4438 34.519 66.8491L34.5277 66.714C34.5445 66.4248 34.5625 66.1237 34.5853 65.8046C34.5922 65.7012 34.5685 65.598 34.5171 65.508C34.4657 65.418 34.3889 65.3451 34.2963 65.2984C34.2033 65.2533 34.0993 65.2359 33.9967 65.2483C33.8941 65.2607 33.7972 65.3024 33.7177 65.3684L33.2674 65.7536C33.0979 65.898 32.9528 66.0217 32.8023 66.1421C32.0793 66.7222 31.3535 67.2962 30.6261 67.8719L30.5501 67.9316C28.9535 69.1948 27.302 70.5009 25.725 71.8498C22.6649 74.4565 20.6946 77.0512 19.5239 80.0165C19.3348 80.4931 19.1652 80.9771 19.0155 81.4675C19.4883 76.803 20.2688 72.1749 21.3519 67.6131C21.4823 67.0624 21.5551 66.9007 21.8229 66.8128C21.9913 66.7558 22.1483 66.6462 22.2629 66.5106C23.0414 65.6266 24.0665 65.4867 25.0595 65.4666C28.3733 65.389 31.0015 63.7378 33.1348 62.1328C38.3657 58.1978 41.9674 48.2139 41.9674 47.8753C41.9673 47.7881 41.9456 47.7022 41.9042 47.6254C41.8627 47.5486 41.8029 47.4833 41.73 47.4353C41.657 47.3884 41.5738 47.3599 41.4874 47.3522C41.401 47.3446 41.314 47.358 41.234 47.3913C40.1442 47.8531 39.0545 48.3029 37.9262 48.769C35.4436 49.7972 32.8768 50.8597 30.4116 52.0214C27.9306 53.1939 25.97 54.7621 24.5685 56.6916C25.8982 52.9144 27.4401 49.2152 29.1871 45.6116C29.3865 45.2263 30.323 44.8172 31.6659 44.8172C32.1027 44.8172 32.5258 44.8639 32.8914 44.9518C36.0466 45.7071 39.1751 45.2491 42.6377 43.5209C46.1802 41.752 49.1191 38.8599 51.6224 34.677C51.6702 34.5961 51.7642 34.3493 51.8147 34.2109C51.8461 34.129 51.8564 34.0405 51.8446 33.9535C51.8328 33.8666 51.7994 33.784 51.7473 33.7133C51.6495 33.5788 51.4931 33.4985 51.2937 33.4985H51.2894L50.0388 33.5771C49.2723 33.6254 48.5281 33.6726 47.7838 33.7106L46.9891 33.7508C44.6162 33.8701 42.1618 33.9928 39.7607 34.5641C37.0222 35.2218 35.0117 36.2316 33.47 37.7292C35.2575 34.7507 37.206 31.8717 39.3071 29.105C39.3625 29.0334 39.6282 28.9238 39.846 28.8874C39.9547 28.8619 40.3501 28.7789 40.876 28.7789C41.5735 28.7789 42.1841 28.9205 42.7018 29.2048C45.9911 30.8115 49.6852 30.9308 53.6959 29.5548C56.9858 28.4322 59.7721 26.3469 62.2145 23.1819C62.2938 23.0799 62.3655 22.9687 62.4307 22.8515C62.4672 22.788 62.4876 22.7166 62.4901 22.6435C62.4925 22.5704 62.477 22.4978 62.4448 22.432C62.2558 22.0359 61.4376 21.8498 61.0932 21.788C60.2479 21.6404 59.2902 21.4722 58.3406 21.3436C57.9055 21.2828 57.4698 21.2193 57.033 21.1547L56.9771 21.1461C55.4973 20.9279 53.9675 20.7022 52.4264 20.6246C49.6102 20.4808 47.1097 21.0549 45.0633 22.3257C46.4134 20.8882 47.8176 19.5022 49.2729 18.1709C49.7243 17.7597 50.2349 17.3451 50.9308 16.8247C50.9846 16.7835 51.1215 16.7352 51.2894 16.7254C56.2214 16.5328 60.3256 14.3581 63.835 10.078C65.7466 7.74804 67.2123 4.8093 68.3167 1.09354L68.3547 0.966024C68.4726 0.575348 68.5378 0.360476 68.2667 0.108707C68.0576 -0.0855455 67.6892 -0.0280278 66.7321 0.350711C65.8629 0.684413 64.9883 1.00835 64.0903 1.34097C62.2862 2.00891 60.4201 2.69965 58.6193 3.47991C55.6098 4.78651 53.2065 6.76701 51.4773 9.36555C50.1605 11.3428 49.6401 13.3293 49.8851 15.4281C49.8797 15.4575 49.8711 15.4862 49.8596 15.5138C46.718 18.223 43.715 21.273 40.6315 24.9031C42.6877 21.763 44.0279 18.1476 44.7004 13.9565C45.3784 9.73127 45.4213 5.97047 44.8324 2.45982C44.7949 2.24006 44.7444 2.02031 44.6798 1.74521L44.5836 1.32143C44.562 1.23162 44.5174 1.14894 44.4543 1.08143C44.3912 1.01392 44.3117 0.963877 44.2234 0.936181C44.1343 0.910119 44.04 0.907618 43.9496 0.928924C43.8592 0.95023 43.7759 0.994611 43.7079 1.05772C43.4928 1.26012 43.282 1.45111 43.0761 1.63668L42.9311 1.76745C42.4041 2.24169 41.9065 2.68934 41.4562 3.19559C37.0804 8.12624 34.5282 13.3342 33.6542 19.1173C33.256 21.731 33.4211 23.9562 34.1594 25.9183C34.4038 26.5683 34.7852 27.1489 35.1649 27.7251C35.3387 27.9883 35.5126 28.2525 35.6717 28.5239C35.7891 28.7186 35.7989 28.7691 35.7983 28.7599C35.7113 29.6517 35.6059 30.5415 35.4822 31.429C35.4762 31.442 35.4566 31.4724 35.3941 31.5548L35.3436 31.6248C32.9361 34.9704 30.7362 38.4603 28.7563 42.0749C29.6999 38.7866 30.1578 35.3784 30.1155 31.958C30.0622 27.1814 28.9611 22.9215 26.7479 18.9328C26.6605 18.7776 26.5018 18.6767 26.2797 18.6615C26.1979 18.6625 26.1176 18.6825 26.0449 18.72C25.9723 18.7575 25.9095 18.8114 25.8614 18.8774C25.7951 18.9697 25.7277 19.0565 25.6636 19.139C25.5208 19.3234 25.3871 19.4982 25.2676 19.6848C23.5053 22.445 22.5601 25.4885 21.9327 27.832C20.7859 32.13 20.2589 35.7188 20.2741 39.1269C20.2828 42.0239 20.8114 44.2507 21.9381 46.1352C22.2885 46.7217 22.7296 47.2351 23.1729 47.7516C23.4081 48.0256 23.6498 48.3072 23.8688 48.5959C24.022 48.7967 24.0958 49.0012 24.1002 49.1152C24.129 49.8021 24.1138 50.5004 24.0991 51.1754L24.0888 51.6421C24.0864 51.7252 24.0703 51.8074 24.041 51.8852C22.6086 55.36 21.3673 58.9103 20.3225 62.5202C20.4751 61.3177 20.564 60.108 20.5887 58.8962C20.7169 52.2254 18.6683 46.2681 14.4984 41.1877L13.6292 40.1302C13.5802 40.0692 13.5181 40.0201 13.4475 39.9864C13.3768 39.9526 13.2995 39.9352 13.2213 39.9354L13.1343 39.943C13.0431 39.9582 12.9574 39.9971 12.886 40.0559C12.8145 40.1147 12.7599 40.1912 12.7274 40.2778C12.6481 40.4888 12.5705 40.688 12.4949 40.8806C12.3512 41.2378 12.218 41.5991 12.0957 41.9642C11.2009 44.7635 10.762 47.8216 10.6729 51.8781L10.6713 51.9573C10.6045 54.9086 10.5127 58.9515 11.7263 62.8203C12.9208 66.6288 15.0275 68.5535 15.436 68.8991L15.4795 68.9382C16.5915 69.9295 17.3157 70.8362 17.4656 71.4249C17.5259 71.6626 17.5873 71.9008 17.659 72.1363C17.9762 73.1841 17.778 74.1824 17.5639 75.2606C17.4574 75.8048 17.3466 76.367 17.3081 76.9438C17.1549 79.252 16.9669 81.5993 16.7849 83.869L16.7686 84.079L16.629 85.8159C16.1651 80.6221 14.443 75.9009 11.4802 71.7255C9.66575 69.1709 7.50256 66.9853 5.04929 65.2278C4.94336 65.1519 4.83199 65.084 4.68314 64.9956C4.59642 64.9454 4.51058 64.8936 4.42565 64.8404C4.34932 64.7954 4.26309 64.7698 4.17453 64.7658C4.08597 64.7618 3.99778 64.7796 3.91772 64.8176C3.83744 64.8572 3.76855 64.9165 3.71752 64.99C3.66649 65.0634 3.63499 65.1486 3.626 65.2376C3.59218 65.5634 3.55469 65.8888 3.51355 66.2137C3.43152 66.8893 3.35384 67.5274 3.35058 68.1829C3.31418 74.9774 4.75322 81.3443 7.62914 87.1046C8.43042 88.7118 9.48919 90.1019 10.7772 91.2382C12.0544 92.3586 13.4326 93.0195 14.9879 93.2572C15.0334 93.2728 15.0766 93.2948 15.1161 93.3223C15.2003 93.4911 15.2877 93.6603 15.3752 93.8302C15.6859 94.4297 16.007 95.0499 16.1667 95.6718C16.2998 96.1976 16.2998 96.7722 16.2998 97.381C16.2998 97.604 16.2998 97.8286 16.3069 98.0489C16.4562 103.312 16.6524 105.145 17.4955 109.848C16.981 108.45 16.3351 107.047 15.5012 105.699C12.1245 100.239 7.83448 96.534 2.38632 94.3717C2.03974 94.2322 1.69206 94.1319 1.28898 94.0147L1.20858 93.9908C1.04506 93.943 0.87177 93.892 0.686525 93.8356C0.602918 93.8091 0.514001 93.8038 0.42784 93.8203C0.341678 93.8368 0.260999 93.8745 0.193122 93.93C0.125244 93.9855 0.0723158 94.057 0.0391381 94.1382C0.00596033 94.2193 -0.0064169 94.3074 0.00312918 94.3945C0.043329 94.7678 0.0710342 95.1308 0.0965665 95.4851C0.15252 96.2621 0.205215 96.9957 0.393719 97.7217C2.15164 104.504 5.06124 109.905 9.28819 114.236C11.0956 116.087 13.0002 117.149 15.1106 117.481C15.643 117.564 16.2938 117.575 17.3955 117.506L17.7128 117.487C17.7611 117.485 17.8035 117.482 17.8421 117.482C17.929 117.482 17.936 117.482 17.9963 117.571L19.4723 119.595C19.4913 119.622 19.519 119.718 19.5381 119.784L19.5598 119.857C21.0917 125.044 22.9925 130.04 25.2339 134.782C24.233 133.402 23.1133 132.113 21.8876 130.928C16.2216 125.436 6.53451 125.277 5.44857 125.277L5.3133 125.278L5.22801 125.294C5.10037 125.339 4.99494 125.431 4.93378 125.551C4.87262 125.672 4.86048 125.811 4.8999 125.94C4.97541 126.193 5.04603 126.448 5.12697 126.747C5.2818 127.31 5.44259 127.891 5.66804 128.453C6.74148 131.133 8.48148 133.71 11.145 136.567C12.9752 138.526 15.0384 140.513 17.7215 141.769C20.6598 143.147 23.313 143.483 25.9515 142.808C26.4003 142.691 26.9163 142.541 27.3602 142.254C27.6763 142.051 27.7627 142.058 28.0734 142.289C28.4418 142.563 28.8334 142.792 29.2137 143.015C29.4239 143.138 29.6358 143.262 29.8335 143.387C29.865 143.413 29.9324 143.524 29.9574 143.564C32.3248 147.421 34.9329 151.006 37.7491 154.275C36.2259 153.168 34.6619 152.368 33.0006 151.834C27.9241 150.2 22.603 150.408 17.333 152.443C16.5464 152.748 15.6843 153.209 15.6267 153.242C15.5665 153.281 15.5151 153.333 15.4757 153.394C15.4364 153.454 15.4099 153.522 15.398 153.594C15.3861 153.665 15.3889 153.738 15.4064 153.808C15.4239 153.878 15.4556 153.943 15.4996 154.001C15.6642 154.215 15.8234 154.429 15.9809 154.643L16.0157 154.689C16.3715 155.173 16.7746 155.721 17.2266 156.206C19.2621 158.386 21.7724 159.847 24.1822 161.101C27.496 162.819 30.8847 163.744 34.255 163.852C34.4136 163.858 34.5722 163.861 34.7303 163.861C37.8306 163.861 40.2507 162.84 42.1162 160.753C42.1618 160.727 42.2123 160.711 42.2645 160.705C42.9772 160.756 43.6547 160.86 44.161 160.944C44.2495 160.962 44.3319 161.002 44.4005 161.061C47.5171 163.817 50.8178 166.236 54.2658 168.295C53.7351 168.137 53.1972 168.004 52.654 167.897C48.9692 167.19 45.2089 167.634 41.0797 169.272C38.294 170.381 35.7033 172.011 33.1593 174.253C33.0583 174.342 32.9951 174.466 32.9828 174.6C32.9705 174.734 33.0099 174.867 33.093 174.973C33.9931 176.117 35.1644 176.758 36.1916 177.233C38.697 178.396 41.5252 179.141 44.8406 179.511C44.8503 179.511 45.9156 179.604 47.4095 179.604C48.4879 179.604 49.4912 179.555 50.3903 179.46C51.2484 179.37 52.0996 179.225 52.9386 179.024C56.7587 178.095 59.3473 176.185 60.8303 173.219C60.8569 173.194 60.971 173.128 61.1155 173.092C61.7414 172.934 62.3756 172.81 63.0152 172.722C63.1543 172.7 63.3276 172.737 63.546 172.825C66.2465 173.859 69.0175 174.699 71.838 175.339C71.9512 175.366 72.0703 175.355 72.1765 175.307C72.2827 175.259 72.37 175.178 72.4247 175.075C72.7033 174.559 73.0348 174.074 73.4139 173.627C73.4724 173.558 73.5121 173.475 73.5291 173.386C73.5461 173.298 73.5399 173.206 73.511 173.12C73.4822 173.035 73.4317 172.958 73.3644 172.898C73.2971 172.837 73.2154 172.795 73.1271 172.776Z" fill="#FFCE21"/>
</svg>
